<mxfile host="app.diagrams.net" agent="Mozilla/5.0 (Windows NT 10.0; Win64; x64) AppleWebKit/537.36 (KHTML, like Gecko) Chrome/131.0.0.0 Safari/537.36" version="24.8.9">
  <diagram name="Page-1" id="Ep_PVfKdQk-0SWpNB3KH">
    <mxGraphModel dx="2049" dy="1760" grid="1" gridSize="10" guides="1" tooltips="1" connect="1" arrows="1" fold="1" page="1" pageScale="1" pageWidth="850" pageHeight="1100" math="0" shadow="0">
      <root>
        <mxCell id="0" />
        <mxCell id="1" parent="0" />
        <mxCell id="HnzH2KPp5SS7Tj7IkqxX-4" value="Client" style="rounded=1;whiteSpace=wrap;html=1;fontFamily=Verdana;" vertex="1" parent="1">
          <mxGeometry x="550" y="150" width="120" height="60" as="geometry" />
        </mxCell>
        <mxCell id="HnzH2KPp5SS7Tj7IkqxX-6" value="" style="group" vertex="1" connectable="0" parent="1">
          <mxGeometry x="130" y="62.5" width="260" height="235" as="geometry" />
        </mxCell>
        <mxCell id="HnzH2KPp5SS7Tj7IkqxX-3" value="" style="rounded=1;whiteSpace=wrap;html=1;fontFamily=Verdana;arcSize=6;" vertex="1" parent="HnzH2KPp5SS7Tj7IkqxX-6">
          <mxGeometry width="260" height="235" as="geometry" />
        </mxCell>
        <mxCell id="HnzH2KPp5SS7Tj7IkqxX-5" value="VPN" style="text;strokeColor=none;fillColor=none;align=left;verticalAlign=middle;spacingLeft=4;spacingRight=4;overflow=hidden;points=[[0,0.5],[1,0.5]];portConstraint=eastwest;rotatable=0;whiteSpace=wrap;html=1;" vertex="1" parent="HnzH2KPp5SS7Tj7IkqxX-6">
          <mxGeometry x="20" y="9.399999999999999" width="50" height="18.799999999999997" as="geometry" />
        </mxCell>
        <mxCell id="HnzH2KPp5SS7Tj7IkqxX-2" value="Proxy Reverso" style="rounded=1;whiteSpace=wrap;html=1;fontFamily=Verdana;" vertex="1" parent="HnzH2KPp5SS7Tj7IkqxX-6">
          <mxGeometry x="70" y="89.3" width="120" height="56.4" as="geometry" />
        </mxCell>
        <mxCell id="HnzH2KPp5SS7Tj7IkqxX-8" value="" style="group" vertex="1" connectable="0" parent="1">
          <mxGeometry x="-210" y="-10" width="150" height="380" as="geometry" />
        </mxCell>
        <mxCell id="HnzH2KPp5SS7Tj7IkqxX-9" value="" style="rounded=1;whiteSpace=wrap;html=1;fontFamily=Verdana;arcSize=6;" vertex="1" parent="HnzH2KPp5SS7Tj7IkqxX-8">
          <mxGeometry width="150" height="380" as="geometry" />
        </mxCell>
        <mxCell id="HnzH2KPp5SS7Tj7IkqxX-10" value="Docker" style="text;strokeColor=none;fillColor=none;align=left;verticalAlign=middle;spacingLeft=4;spacingRight=4;overflow=hidden;points=[[0,0.5],[1,0.5]];portConstraint=eastwest;rotatable=0;whiteSpace=wrap;html=1;" vertex="1" parent="HnzH2KPp5SS7Tj7IkqxX-8">
          <mxGeometry x="11.54" y="15.2" width="58.46" height="30.4" as="geometry" />
        </mxCell>
        <mxCell id="HnzH2KPp5SS7Tj7IkqxX-13" value="App 3" style="rounded=1;whiteSpace=wrap;html=1;fontFamily=Verdana;" vertex="1" parent="HnzH2KPp5SS7Tj7IkqxX-8">
          <mxGeometry x="15" y="280" width="120" height="60" as="geometry" />
        </mxCell>
        <mxCell id="HnzH2KPp5SS7Tj7IkqxX-12" value="App 2" style="rounded=1;whiteSpace=wrap;html=1;fontFamily=Verdana;" vertex="1" parent="HnzH2KPp5SS7Tj7IkqxX-8">
          <mxGeometry x="15" y="160" width="120" height="60" as="geometry" />
        </mxCell>
        <mxCell id="HnzH2KPp5SS7Tj7IkqxX-1" value="App 1" style="rounded=1;whiteSpace=wrap;html=1;fontFamily=Verdana;" vertex="1" parent="HnzH2KPp5SS7Tj7IkqxX-8">
          <mxGeometry x="11.539999999999992" y="60" width="120" height="60" as="geometry" />
        </mxCell>
        <mxCell id="HnzH2KPp5SS7Tj7IkqxX-20" value="Database" style="rounded=1;whiteSpace=wrap;html=1;fontFamily=Verdana;" vertex="1" parent="1">
          <mxGeometry x="-600" y="150" width="120" height="60" as="geometry" />
        </mxCell>
        <mxCell id="HnzH2KPp5SS7Tj7IkqxX-21" value="" style="endArrow=classic;html=1;rounded=0;exitX=0;exitY=0.5;exitDx=0;exitDy=0;entryX=1;entryY=0.5;entryDx=0;entryDy=0;" edge="1" parent="1" source="HnzH2KPp5SS7Tj7IkqxX-4" target="HnzH2KPp5SS7Tj7IkqxX-2">
          <mxGeometry width="50" height="50" relative="1" as="geometry">
            <mxPoint x="520" y="60" as="sourcePoint" />
            <mxPoint x="570" y="10" as="targetPoint" />
          </mxGeometry>
        </mxCell>
        <mxCell id="HnzH2KPp5SS7Tj7IkqxX-25" value="" style="group" vertex="1" connectable="0" parent="1">
          <mxGeometry x="20" y="80" height="220" as="geometry" />
        </mxCell>
        <mxCell id="HnzH2KPp5SS7Tj7IkqxX-23" value="" style="endArrow=classic;html=1;rounded=0;entryX=1;entryY=0.5;entryDx=0;entryDy=0;" edge="1" parent="HnzH2KPp5SS7Tj7IkqxX-25" target="HnzH2KPp5SS7Tj7IkqxX-1">
          <mxGeometry width="50" height="50" relative="1" as="geometry">
            <mxPoint y="100" as="sourcePoint" />
            <mxPoint x="570" y="-50" as="targetPoint" />
            <Array as="points">
              <mxPoint />
            </Array>
          </mxGeometry>
        </mxCell>
        <mxCell id="HnzH2KPp5SS7Tj7IkqxX-24" value="" style="endArrow=classic;html=1;rounded=0;entryX=1;entryY=0.5;entryDx=0;entryDy=0;" edge="1" parent="HnzH2KPp5SS7Tj7IkqxX-25" target="HnzH2KPp5SS7Tj7IkqxX-13">
          <mxGeometry width="50" height="50" relative="1" as="geometry">
            <mxPoint y="100" as="sourcePoint" />
            <mxPoint x="580" y="-40" as="targetPoint" />
            <Array as="points">
              <mxPoint y="220" />
            </Array>
          </mxGeometry>
        </mxCell>
        <mxCell id="HnzH2KPp5SS7Tj7IkqxX-22" value="" style="endArrow=classic;html=1;rounded=0;exitX=0;exitY=0.5;exitDx=0;exitDy=0;entryX=1;entryY=0.5;entryDx=0;entryDy=0;" edge="1" parent="HnzH2KPp5SS7Tj7IkqxX-25" source="HnzH2KPp5SS7Tj7IkqxX-2" target="HnzH2KPp5SS7Tj7IkqxX-12">
          <mxGeometry width="50" height="50" relative="1" as="geometry">
            <mxPoint x="160" y="80" as="sourcePoint" />
            <mxPoint x="210" y="30" as="targetPoint" />
          </mxGeometry>
        </mxCell>
        <mxCell id="HnzH2KPp5SS7Tj7IkqxX-30" value="" style="endArrow=classic;html=1;rounded=0;exitX=1;exitY=0.5;exitDx=0;exitDy=0;entryX=0;entryY=0.5;entryDx=0;entryDy=0;" edge="1" parent="1" source="HnzH2KPp5SS7Tj7IkqxX-20" target="HnzH2KPp5SS7Tj7IkqxX-12">
          <mxGeometry width="50" height="50" relative="1" as="geometry">
            <mxPoint x="-160" y="160" as="sourcePoint" />
            <mxPoint x="-110" y="110" as="targetPoint" />
          </mxGeometry>
        </mxCell>
        <mxCell id="HnzH2KPp5SS7Tj7IkqxX-31" value="" style="endArrow=classic;html=1;rounded=0;entryX=0;entryY=0.5;entryDx=0;entryDy=0;" edge="1" parent="1" target="HnzH2KPp5SS7Tj7IkqxX-1">
          <mxGeometry width="50" height="50" relative="1" as="geometry">
            <mxPoint x="-370" y="180" as="sourcePoint" />
            <mxPoint x="-185" y="190" as="targetPoint" />
            <Array as="points">
              <mxPoint x="-370" y="80" />
            </Array>
          </mxGeometry>
        </mxCell>
        <mxCell id="HnzH2KPp5SS7Tj7IkqxX-32" value="" style="endArrow=classic;html=1;rounded=0;entryX=0;entryY=0.5;entryDx=0;entryDy=0;" edge="1" parent="1" target="HnzH2KPp5SS7Tj7IkqxX-13">
          <mxGeometry width="50" height="50" relative="1" as="geometry">
            <mxPoint x="-370" y="180" as="sourcePoint" />
            <mxPoint x="-175" y="200" as="targetPoint" />
            <Array as="points">
              <mxPoint x="-370" y="300" />
            </Array>
          </mxGeometry>
        </mxCell>
      </root>
    </mxGraphModel>
  </diagram>
</mxfile>
